# xmcd CD database file
#
# Track frame offsets:
#	182
#	26970
#	49300
#	68227
#	84825
#	102267
#	122675
#	156010
#	178212
#	206632
#	224365
#	244410
#	263465
#	286825
#
# Disc length: 4151 seconds
#
# Revision: 0
# Processed by: cddbd v1.4PL0 Copyright (c) Steve Scherf et al.
# Submitted via: CDex 1.40Release
#
DISCID=cb10350e
DTITLE=Clarence 'Gatemouth' Brown - Cold Storage
DYEAR=1973
DGENRE=Blues
TTITLE0=She Winked Her Eye
TTITLE1=Cold Storage
TTITLE2=Choo Choo Boogie
TTITLE3=Pressure Cooker
TTITLE4=Sad Sad Hour
TTITLE5=My Time Is Expensive
TTITLE6=Justice Blues
TTITLE7=Slow Down
TTITLE8=Taking My Chance
TTITLE9=Just Got Lucky
TTITLE10=Let The Good Time Roll
TTITLE11=Salt Pork West Virginia
TTITLE12=Ain't Nobody Here But Us Chicken
TTITLE13=Ain't Just Like A Woman
EXTD=YEAR: 1973 ID3G: 0
EXTT0=
EXTT1=
EXTT2=
EXTT3=
EXTT4=
EXTT5=
EXTT6=
EXTT7=
EXTT8=
EXTT9=
EXTT10=
EXTT11=
EXTT12=
EXTT13=
PLAYORDER=
